<?xml version="1.0" encoding="UTF-8" standalone="no"?>
<!-- Created with Inkscape (http://www.inkscape.org/) -->

<svg
   width="395.02292mm"
   height="159.54375mm"
   viewBox="0 0 395.02292 159.54375"
   version="1.1"
   id="svg5"
   inkscape:version="1.1.1 (3bf5ae0d25, 2021-09-20)"
   sodipodi:docname="drawing.svg"
   xmlns:inkscape="http://www.inkscape.org/namespaces/inkscape"
   xmlns:sodipodi="http://sodipodi.sourceforge.net/DTD/sodipodi-0.dtd"
   xmlns="http://www.w3.org/2000/svg"
   xmlns:svg="http://www.w3.org/2000/svg">
  <sodipodi:namedview
     id="namedview7"
     pagecolor="#ffffff"
     bordercolor="#666666"
     borderopacity="1.0"
     inkscape:pageshadow="2"
     inkscape:pageopacity="0.0"
     inkscape:pagecheckerboard="0"
     inkscape:document-units="mm"
     showgrid="false"
     inkscape:lockguides="true"
     inkscape:snap-global="false"
     fit-margin-top="0"
     fit-margin-left="0"
     fit-margin-right="0"
     fit-margin-bottom="0"
     inkscape:zoom="0.70710678"
     inkscape:cx="655.48799"
     inkscape:cy="163.34167"
     inkscape:window-width="1920"
     inkscape:window-height="1017"
     inkscape:window-x="3832"
     inkscape:window-y="415"
     inkscape:window-maximized="1"
     inkscape:current-layer="layer1" />
  <defs
     id="defs2" />
  <g
     inkscape:label="Layer 1"
     inkscape:groupmode="layer"
     id="layer1"
     transform="translate(92.084404,-74.343552)">
    <path
       style="fill:#8a2be2;fill-opacity:1;stroke:none;stroke-width:0.264583"
       d="m 144.34895,91.056131 c -7.21201,11.781369 -19.44687,17.237869 -32.80833,18.973539 -4.90538,0.63711 -9.88325,0.15769 -14.816674,0.98531 -10.57937,1.77482 -20.61131,6.08753 -29.36875,12.2465 -7.77584,5.46841 -14.5079,12.77011 -19.31141,20.9759 -1.74201,2.97551 -3.31073,6.06319 -4.60586,9.26042 -0.49848,1.23058 -0.85778,3.4962 -2.07143,4.22592 -1.15702,0.69612 -3.3946,0.272 -4.70297,0.272 h -11.90625 v 43.92083 h 22.225 V 177.3103 c 0,-3.92192 -0.54636,-8.30025 0.086,-12.17083 0.83238,-5.09456 3.38376,-10.31875 5.8166,-14.81667 17.54135,-32.43051 60.225264,-42.83419 90.670334,-22.31231 5.67346,3.82402 10.84025,8.63388 14.95557,14.11023 4.96041,6.60108 9.63243,14.77645 11.11515,23.01875 0.7075,3.93117 0.12303,8.44258 0.12303,12.43541 v 24.34167 h 21.96042 v -43.92083 h -16.93334 c -0.87894,-5.95154 -4.97152,-12.31662 -8.2931,-17.19792 -1.35546,-1.99178 -2.74505,-4.34658 -4.67148,-5.82083 v -0.26459 c 11.6631,-6.64527 10.5709,-24.10036 8.02984,-35.189581 -0.59663,-2.60271 -1.60946,-5.081404 -2.20901,-7.672918 h -0.26458 c -2.71118,9.483199 -10.35817,14.698399 -18.52083,19.049999 0,-7.19693 -0.644,-13.344791 -3.96875,-19.843749 h -0.52917 M 85.346866,144.61812 c -5.41999,0.8464 -9.99278,4.24047 -14.02291,7.74673 -11.01963,9.58771 -17.81334,25.41905 -17.99272,40.0267 -0.0759,6.18834 -0.79296,15.66783 5.29272,19.58737 4.93051,3.17526 12.58782,-1.58962 16.93333,-4.014 11.58002,-6.46006 22.08795,-16.3695 36.247924,-14.99923 10.88496,1.05331 20.46235,9.96739 29.63333,15.14846 3.87721,2.19048 9.88669,5.78961 14.55209,4.77784 6.18014,-1.34037 6.96859,-9.34243 7.45331,-14.41502 1.36366,-14.27295 -4.19021,-31.0605 -13.6144,-41.80417 -5.7568,-6.56273 -15.95729,-15.15454 -25.32433,-11.1461 -6.02377,2.57757 -9.6348,8.98525 -16.93333,8.47645 -8.673314,-0.60431 -12.944224,-10.83442 -22.225014,-9.38503 m -2.91041,12.13035 c 17.682634,-2.17144 25.756394,22.5888 10.84791,31.7754 -2.09788,1.29275 -4.42965,2.15 -6.87916,2.4683 -17.69136,2.29896 -26.99676,-21.97047 -11.64167,-31.61295 2.34289,-1.47108 4.93395,-2.2942 7.67292,-2.63075 m 50.006254,0 c 17.71782,-2.17593 25.91832,22.63669 10.84792,31.81615 -2.0836,1.2692 -4.4577,2.11269 -6.87917,2.42755 -17.87895,2.3233 -26.80943,-22.20833 -11.37708,-31.72249 2.24922,-1.38668 4.79107,-2.19974 7.40833,-2.52121 M 81.113536,170.9603 c -2.19657,0 -5.3795,-0.57759 -7.40701,0.37941 -2.15794,1.01838 -2.3188,3.93224 -0.26088,5.15303 2.0029,1.18824 5.41867,0.55298 7.66789,0.55298 0,2.13201 -0.62627,5.46311 0.34872,7.40436 1.0205,2.03147 3.99521,2.28388 5.17049,0.25691 1.17819,-2.03147 0.56621,-5.39803 0.56621,-7.66127 2.23943,0 5.64885,0.62494 7.64804,-0.56621 1.95422,-1.16417 1.68619,-4.07617 -0.24368,-5.07259 -2.00157,-1.03294 -5.20568,-0.44662 -7.40436,-0.44662 0,-2.25557 0.59531,-5.61446 -0.57256,-7.64805 -1.15253,-2.0066 -4.1619,-1.75127 -5.16414,0.24368 -0.97499,1.94072 -0.34872,5.27262 -0.34872,7.40437 m 52.122924,-9.08738 c -4.13041,1.27556 -2.29341,7.81341 1.85208,6.53309 4.13042,-1.27556 2.29341,-7.81341 -1.85208,-6.53309 m -117.475004,2.20821 v 31.75 h 7.14375 v -31.75 h -7.14375 m 178.064594,0 v 31.75 h 7.14375 v -31.75 h -7.14375 m -69.05626,6.49499 c -4.38441,0.95118 -3.00116,7.56523 1.32292,6.62887 4.15687,-0.90011 2.8829,-7.54141 -1.32292,-6.62887 m 17.4625,-0.003 c -4.32567,0.99431 -2.70695,7.69938 1.58724,6.58919 4.11004,-1.06231 2.52836,-7.53534 -1.58724,-6.58919 m -8.20208,8.75242 c -4.50744,0.25876 -3.98595,7.07681 0.52917,6.68708 4.18729,-0.36142 3.66845,-6.92812 -0.52917,-6.68708 z"
       id="path7756" />
  </g>
</svg>
